<svg id="logo" width="256" height="256" viewBox="0 0 1024 1024"
    xmlns="http://www.w3.org/2000/svg">
    <g>
        <title>Layer 1</title>
        <ellipse ry="512" rx="512" id="svg_2" cy="512" cx="512" stroke-opacity="null" stroke-width="null" stroke="null" fill="#79009b"/>
        <path id="svg_1" d="m861.758106,452.000324c-47.625,0 -88.625,26.312 -110.625,64.906c-5.75,-0.406 -11.375,-0.906 -17.375,-0.906c-131.062,0 -255.438,-99.844 -300.812,-223.438c27.281,-23.468 44.812,-57.843 44.812,-96.562c0,-70.656 -57.344,-128 -128,-128s-128,57.344 -128,128c0,47.219 25.844,88.062 64,110.281l0,419.469c-38.156,22.188 -64,63 -64,110.25c0,70.625 57.344,128 128,128s128,-57.375 128,-128c0,-47.25 -25.844,-88.062 -64,-110.25l0,-230.281c84.156,89.031 200.375,148.531 320,148.531c6.375,0 11.625,-0.438 17.375,-0.625c22.125,38.437 63.125,64.625 110.625,64.625c70.625,0 128,-57.375 128,-128c0,-70.656 -57.375,-128 -128,-128zm-512,448c-35.312,0 -64,-28.625 -64,-64c0,-35.312 28.688,-64 64,-64c35.406,0 64,28.688 64,64c0,35.375 -28.594,64 -64,64zm0,-640c-35.312,0 -64,-28.594 -64,-64s28.688,-64 64,-64c35.406,0 64,28.594 64,64s-28.594,64 -64,64zm512,384c-35.312,0 -64,-28.625 -64,-64c0,-35.406 28.688,-64 64,-64c35.375,0 64,28.594 64,64c0,35.375 -28.625,64 -64,64z"/>
        <ellipse stroke="null" rx="2.000162" id="svg_3" cy="301.983019" cx="2156.133149" fill-opacity="null" stroke-opacity="null" stroke-width="null" fill="null"/>
        <path class="gear" transform="rotate(15 351.015091,196.624146)" stroke="null" id="svg_5" d="m349.099406,173.171637c-12.165015,0 -22.022289,9.857274 -22.022289,22.022289c0,12.159373 9.857274,22.022289 22.022289,22.022289c2.787346,0 5.427989,-0.575525 7.882433,-1.523448l4.717047,7.250485l7.668022,-4.993524l-4.688835,-7.199703c3.977892,-3.983535 6.443621,-9.484875 6.443621,-15.556098c0,-12.165015 -9.857274,-22.022289 -22.022289,-22.022289zm-0.084636,-59.606318c-45.291548,0 -82.006648,36.7151 -82.006648,82.006648c0,45.291548 36.7151,82.006648 82.006648,82.006648c45.291548,0 82.006648,-36.7151 82.006648,-82.006648c0,-45.291548 -36.7151,-82.006648 -82.006648,-82.006648zm57.405782,109.140952c-1.359819,2.84377 -2.894551,5.585976 -4.660623,8.181481l-17.818701,-3.83119c-2.713995,2.967903 -5.80603,5.608546 -9.219682,7.814725l0.671446,18.066966c-2.860697,1.297752 -5.800388,2.375451 -8.852926,3.216168l-11.030893,-14.184995c-2.098973,0.287762 -4.2318,0.485246 -6.409767,0.485246c-2.008695,0 -3.983535,-0.16363 -5.930163,-0.417538l-10.974469,14.106001c-3.052539,-0.852002 -6.009156,-1.929701 -8.858569,-3.210526l0.660161,-17.750992c-3.577282,-2.245675 -6.81602,-4.965312 -9.65979,-8.051705l-17.344739,3.712699c-1.766071,-2.572935 -3.289519,-5.326426 -4.660623,-8.170196l11.781332,-13.028303c-1.275183,-3.966608 -1.99741,-8.187123 -2.172324,-12.543056l-15.618164,-8.260474c0.310332,-3.176671 0.930996,-6.246137 1.698363,-9.270464l17.401163,-2.409305c1.636296,-3.960965 3.80862,-7.628525 6.404125,-10.957542l-6.669317,-16.368604c2.251318,-2.194894 4.683192,-4.197946 7.2392,-6.037368l15.025712,9.434094c3.66756,-1.901489 7.611598,-3.345943 11.764405,-4.2318l5.461844,-16.932844c1.568587,-0.11849 3.131532,-0.236981 4.722689,-0.236981c1.591157,0 3.159744,0.124133 4.722689,0.236981l5.506983,17.085189c4.062528,0.919711 7.905003,2.347239 11.487927,4.2318l15.257051,-9.575154c2.567292,1.839423 5.004809,3.842475 7.250485,6.037368l-6.861159,16.848208c2.414947,3.182314 4.474424,6.663675 6.026084,10.410229l17.971045,2.488299c0.761724,3.018684 1.393673,6.099435 1.704005,9.270464l-16.176762,8.553879c-0.191842,4.096383 -0.84636,8.068633 -2.003052,11.849041l12.165015,13.440198z" fill-opacity="null" stroke-opacity="null" stroke-width="null" fill="null"/>
        <path class="gear" transform="rotate(119 353.0150909423828,839.6241455078125)" stroke="null" id="svg_6" d="m353.099731,817.223822c-12.165016,0 -22.022289,9.857273 -22.022289,22.022289c0,12.159373 9.857273,22.022289 22.022289,22.022289c2.787345,0 5.427989,-0.575525 7.882433,-1.523448l4.717047,7.250484l7.668022,-4.993524l-4.688835,-7.199703c3.977893,-3.983535 6.443622,-9.484875 6.443622,-15.556098c0,-12.165016 -9.857274,-22.022289 -22.022289,-22.022289zm-0.084636,-59.606319c-45.291549,0 -82.006649,36.7151 -82.006649,82.006649c0,45.291548 36.7151,82.006648 82.006649,82.006648c45.291548,0 82.006648,-36.7151 82.006648,-82.006648c0,-45.291549 -36.7151,-82.006649 -82.006648,-82.006649zm57.405782,109.140952c-1.359819,2.84377 -2.894552,5.585977 -4.660623,8.181481l-17.818701,-3.83119c-2.713994,2.967903 -5.80603,5.608546 -9.219682,7.814725l0.671446,18.066966c-2.860697,1.297752 -5.800388,2.375451 -8.852927,3.216168l-11.030892,-14.184995c-2.098973,0.287763 -4.231801,0.485247 -6.409767,0.485247c-2.008695,0 -3.983535,-0.16363 -5.930163,-0.417538l-10.974469,14.106001c-3.052539,-0.852002 -6.009157,-1.929701 -8.858569,-3.210525l0.660161,-17.750992c-3.577282,-2.245676 -6.81602,-4.965313 -9.65979,-8.051706l-17.344739,3.7127c-1.766071,-2.572935 -3.289519,-5.326426 -4.660622,-8.170196l11.781332,-13.028303c-1.275183,-3.966607 -1.99741,-8.187123 -2.172324,-12.543056l-15.618165,-8.260474c0.310332,-3.176672 0.930996,-6.246138 1.698363,-9.270464l17.401163,-2.409305c1.636296,-3.960965 3.80862,-7.628526 6.404124,-10.957542l-6.669317,-16.368604c2.251318,-2.194893 4.683192,-4.197946 7.2392,-6.037368l15.025712,9.434094c3.66756,-1.901489 7.611598,-3.345944 11.764405,-4.231801l5.461844,-16.932844c1.568587,-0.11849 3.131532,-0.23698 4.722689,-0.23698c1.591157,0 3.159744,0.124132 4.722689,0.23698l5.506983,17.085189c4.062528,0.919711 7.905003,2.347239 11.487927,4.2318l15.257051,-9.575153c2.567292,1.839422 5.004809,3.842474 7.250485,6.037368l-6.861159,16.848208c2.414947,3.182314 4.474423,6.663675 6.026083,10.410229l17.971046,2.488298c0.761724,3.018685 1.393673,6.099435 1.704005,9.270464l-16.176762,8.553879c-0.191842,4.096383 -0.84636,8.068633 -2.003053,11.849041l12.165016,13.440198z" fill-opacity="null" stroke-opacity="null" stroke-width="null" fill="null"/>
        <path class="gear" transform="rotate(111 863.4440307617188,581.28466796875) " stroke="null" id="svg_7" d="m863.52869,558.884344c-12.165016,0 -22.022289,9.857273 -22.022289,22.022289c0,12.159373 9.857273,22.022289 22.022289,22.022289c2.787345,0 5.427989,-0.575525 7.882433,-1.523448l4.717047,7.250484l7.668022,-4.993524l-4.688835,-7.199703c3.977893,-3.983535 6.443622,-9.484875 6.443622,-15.556098c0,-12.165016 -9.857274,-22.022289 -22.022289,-22.022289zm-0.084636,-59.606319c-45.291549,0 -82.006649,36.7151 -82.006649,82.006649c0,45.291548 36.7151,82.006648 82.006649,82.006648c45.291548,0 82.006648,-36.7151 82.006648,-82.006648c0,-45.291549 -36.7151,-82.006649 -82.006648,-82.006649zm57.405782,109.140952c-1.359819,2.84377 -2.894552,5.585977 -4.660623,8.181481l-17.818701,-3.83119c-2.713994,2.967903 -5.80603,5.608546 -9.219682,7.814725l0.671446,18.066966c-2.860697,1.297752 -5.800388,2.375451 -8.852927,3.216168l-11.030892,-14.184995c-2.098973,0.287763 -4.231801,0.485247 -6.409767,0.485247c-2.008695,0 -3.983535,-0.16363 -5.930163,-0.417538l-10.974469,14.106001c-3.052539,-0.852002 -6.009157,-1.929701 -8.858569,-3.210525l0.660161,-17.750992c-3.577282,-2.245676 -6.81602,-4.965313 -9.65979,-8.051706l-17.344739,3.7127c-1.766071,-2.572935 -3.289519,-5.326426 -4.660622,-8.170196l11.781332,-13.028303c-1.275183,-3.966607 -1.99741,-8.187123 -2.172324,-12.543056l-15.618165,-8.260474c0.310332,-3.176672 0.930996,-6.246138 1.698363,-9.270464l17.401163,-2.409305c1.636296,-3.960965 3.80862,-7.628526 6.404124,-10.957542l-6.669317,-16.368604c2.251318,-2.194893 4.683192,-4.197946 7.2392,-6.037368l15.025712,9.434094c3.66756,-1.901489 7.611598,-3.345944 11.764405,-4.231801l5.461844,-16.932844c1.568587,-0.11849 3.131532,-0.23698 4.722689,-0.23698c1.591157,0 3.159744,0.124132 4.722689,0.23698l5.506983,17.085189c4.062528,0.919711 7.905003,2.347239 11.487927,4.2318l15.257051,-9.575153c2.567292,1.839422 5.004809,3.842474 7.250485,6.037368l-6.861159,16.848208c2.414947,3.182314 4.474423,6.663675 6.026083,10.410229l17.971046,2.488298c0.761724,3.018685 1.393673,6.099435 1.704005,9.270464l-16.176762,8.553879c-0.191842,4.096383 -0.84636,8.068633 -2.003053,11.849041l12.165016,13.440198z" fill-opacity="null" stroke-opacity="null" stroke-width="null" fill="null"/>
    </g>
</svg>